<?xml version="1.0" encoding="UTF-8" standalone="no"?>
  <svg
      xmlns="http://www.w3.org/2000/svg"
      width="121"
      height="31"
      viewBox="0 0 121 31"
    >
      <g fill="none" fillRule="evenodd" stroke="none" strokeWidth="1">
        <g fill="#484444" transform="translate(-167 -46)">
          <g transform="translate(167 46)">
            <path d="M18 0H0v22.873a3.993 3.993 0 003.999 3.994H6.23V31L9 28.933 11.793 31v-4.133H14a3.996 3.996 0 004.001-4V4.132H1.385v-.689H18V2.067H1.385v-.69H18V0zM9 12.4c1.53 0 2.77-1.234 2.77-2.756A2.762 2.762 0 009 6.89a2.762 2.762 0 00-2.77 2.755A2.762 2.762 0 009 12.4zm-2.77 2.067h5.54v11.78H6.23v-11.78z"></path>
            <path d="M29.64 22h-2.882V6.004h2.883V22zm13.16 0H40.13v-7.395c0-.78-.18-1.369-.54-1.763-.359-.395-.792-.592-1.3-.592-.695 0-1.305.305-1.828.914-.524.61-.785 1.527-.785 2.754V22h-2.672V10.164h2.437v2.742c.852-1.992 2.047-2.988 3.586-2.988 1.04 0 1.928.328 2.666.984.739.657 1.108 1.809 1.108 3.457V22zm1.759-2.719l2.507-.48c.383.96 1.227 1.441 2.532 1.441 1.656 0 2.484-.488 2.484-1.465a.944.944 0 00-.387-.773 2.126 2.126 0 00-.914-.41l-2.156-.41c-2.39-.461-3.586-1.63-3.586-3.504 0-1.047.379-1.936 1.137-2.666s1.886-1.096 3.386-1.096c2.5 0 4.028.918 4.583 2.754l-2.38.48c-.25-.89-.96-1.336-2.132-1.336-1.422 0-2.133.446-2.133 1.336 0 .618.574 1.043 1.723 1.278l2.543.527c1.976.406 2.964 1.54 2.964 3.398 0 1.305-.507 2.28-1.523 2.924-1.016.645-2.223.967-3.621.967-1.211 0-2.281-.244-3.211-.732-.93-.489-1.535-1.233-1.816-2.233zm17.824.633V22c-.797.172-1.414.258-1.852.258-.719 0-1.336-.143-1.851-.428a2.619 2.619 0 01-1.131-1.172c-.238-.496-.358-1.26-.358-2.29v-6.13h-1.476v-2.074h1.629l.246-3.082 2.191-.2v3.282h2.38v2.074h-2.38v5.778c0 .742.135 1.248.405 1.517.27.27.779.404 1.529.404.21 0 .433-.007.668-.023zM74.758 22h-2.543a9.66 9.66 0 01-.41-2.39c-.711 1.757-2.047 2.636-4.008 2.636-1.18 0-2.127-.346-2.842-1.037-.715-.691-1.072-1.56-1.072-2.607 0-2.72 2.387-4.079 7.16-4.079.187 0 .441.004.762.012v-.89c0-1.227-.836-1.84-2.508-1.84-1.625 0-2.547.613-2.766 1.84l-2.273-.34c.125-.985.633-1.795 1.523-2.432.89-.637 2.18-.955 3.867-.955.915 0 1.66.076 2.239.228a3.43 3.43 0 011.465.774c.398.363.673.758.826 1.184.152.425.228 1.146.228 2.162v5.343c0 .774.117 1.57.352 2.391zm-2.953-6.023c-3.453 0-5.18.824-5.18 2.472 0 .492.174.912.521 1.26.348.348.874.521 1.577.521 1.015 0 1.783-.322 2.302-.966.52-.645.78-1.377.78-2.198v-1.09zM80.277 22h-2.672V10.164h2.415v2.824c.343-1.101.816-1.906 1.418-2.414.601-.508 1.218-.761 1.851-.761.086 0 .203.003.352.011v2.871c-1.36 0-2.26.434-2.702 1.301-.441.867-.662 1.707-.662 2.52V22zm12.809-3.773l2.414.328c-.313 1.07-.922 1.953-1.828 2.648-.906.695-2.043 1.043-3.41 1.043-1.64 0-2.961-.55-3.961-1.652-1-1.102-1.5-2.594-1.5-4.477 0-1.789.504-3.27 1.511-4.441 1.008-1.172 2.375-1.758 4.102-1.758 1.688 0 2.992.578 3.914 1.734.922 1.157 1.383 2.641 1.383 4.453l-.012.305h-8.12c0 .805.075 1.45.228 1.934.152.484.455.906.908 1.265.453.36 1.02.54 1.7.54 1.32 0 2.21-.641 2.67-1.922zm-.164-3.54c-.008-.851-.264-1.546-.768-2.085a2.456 2.456 0 00-1.869-.809c-.734 0-1.347.252-1.84.756-.492.504-.78 1.217-.867 2.139h5.344zM108.273 22h-2.543a9.66 9.66 0 01-.41-2.39c-.71 1.757-2.047 2.636-4.007 2.636-1.18 0-2.127-.346-2.842-1.037-.715-.691-1.073-1.56-1.073-2.607 0-2.72 2.387-4.079 7.16-4.079.188 0 .442.004.762.012v-.89c0-1.227-.836-1.84-2.507-1.84-1.626 0-2.547.613-2.766 1.84l-2.274-.34c.125-.985.633-1.795 1.524-2.432.89-.637 2.18-.955 3.867-.955.914 0 1.66.076 2.238.228a3.43 3.43 0 011.465.774c.399.363.674.758.826 1.184.153.425.229 1.146.229 2.162v5.343c0 .774.117 1.57.351 2.391zm-2.953-6.023c-3.453 0-5.18.824-5.18 2.472 0 .492.174.912.522 1.26.348.348.873.521 1.576.521 1.016 0 1.783-.322 2.303-.966.52-.645.78-1.377.78-2.198v-1.09zM120.848 22h-2.496v-2.39c-.688 1.757-1.852 2.636-3.493 2.636-1.453 0-2.566-.605-3.34-1.816-.773-1.211-1.16-2.715-1.16-4.512 0-1.672.403-3.129 1.207-4.371.805-1.242 1.95-1.863 3.434-1.863 1.523 0 2.582.695 3.176 2.086V6.004h2.672V22zm-2.672-6.984c0-.961-.229-1.71-.686-2.245-.457-.535-1.049-.802-1.775-.802-.79 0-1.406.343-1.852 1.031-.445.688-.668 1.715-.668 3.082 0 2.64.828 3.961 2.485 3.961.656 0 1.236-.283 1.74-.85.504-.566.756-1.29.756-2.173v-2.004z"></path>
          </g>
        </g>
      </g>
    </svg>